<mxfile host="app.diagrams.net" modified="2021-01-11T09:56:27.057Z" agent="5.0 (Windows NT 10.0; Win64; x64) AppleWebKit/537.36 (KHTML, like Gecko) Chrome/87.0.4280.60 YaBrowser/20.12.0.963 Yowser/2.5 Safari/537.36" etag="6o-eXjhWODFosYN0u8p7" version="14.1.1" type="github">
  <diagram id="3t_IoONpqmpgTN0tP6om" name="Page-1">
    <mxGraphModel dx="1155" dy="674" grid="1" gridSize="10" guides="1" tooltips="1" connect="1" arrows="1" fold="1" page="1" pageScale="1" pageWidth="827" pageHeight="1169" math="0" shadow="0">
      <root>
        <mxCell id="0" />
        <mxCell id="1" parent="0" />
        <mxCell id="hyrHyGOHG9iXG-mK3Ywu-2" value="&lt;br&gt;Развертывает:&lt;br&gt;Serv.exe&lt;br&gt;bd.mdf&lt;br&gt;index.html&lt;br&gt;registration.html&lt;br&gt;news.html" style="shape=cube;whiteSpace=wrap;html=1;boundedLbl=1;backgroundOutline=1;darkOpacity=0.05;darkOpacity2=0.1;" vertex="1" parent="1">
          <mxGeometry x="100" y="50" width="120" height="160" as="geometry" />
        </mxCell>
        <mxCell id="hyrHyGOHG9iXG-mK3Ywu-3" value=": Сервер" style="rounded=0;whiteSpace=wrap;html=1;" vertex="1" parent="1">
          <mxGeometry x="120" y="70" width="100" height="20" as="geometry" />
        </mxCell>
        <mxCell id="hyrHyGOHG9iXG-mK3Ywu-4" value=":Сервер" style="shape=cube;whiteSpace=wrap;html=1;boundedLbl=1;backgroundOutline=1;darkOpacity=0.05;darkOpacity2=0.1;" vertex="1" parent="1">
          <mxGeometry x="180" y="310" width="80" height="50" as="geometry" />
        </mxCell>
        <mxCell id="hyrHyGOHG9iXG-mK3Ywu-5" value="Serv.exe" style="shape=module;align=left;spacingLeft=20;align=center;verticalAlign=top;" vertex="1" parent="1">
          <mxGeometry x="180" y="420" width="100" height="50" as="geometry" />
        </mxCell>
        <mxCell id="hyrHyGOHG9iXG-mK3Ywu-9" value="&lt;br&gt;Развертывает:&lt;br&gt;Browser.exe" style="shape=cube;whiteSpace=wrap;html=1;boundedLbl=1;backgroundOutline=1;darkOpacity=0.05;darkOpacity2=0.1;" vertex="1" parent="1">
          <mxGeometry x="400" y="55" width="120" height="80" as="geometry" />
        </mxCell>
        <mxCell id="hyrHyGOHG9iXG-mK3Ywu-10" value=": Browser" style="rounded=0;whiteSpace=wrap;html=1;" vertex="1" parent="1">
          <mxGeometry x="420" y="75" width="100" height="20" as="geometry" />
        </mxCell>
        <mxCell id="hyrHyGOHG9iXG-mK3Ywu-11" value=":&amp;nbsp; Browser" style="shape=cube;whiteSpace=wrap;html=1;boundedLbl=1;backgroundOutline=1;darkOpacity=0.05;darkOpacity2=0.1;" vertex="1" parent="1">
          <mxGeometry x="440" y="175" width="80" height="50" as="geometry" />
        </mxCell>
        <mxCell id="hyrHyGOHG9iXG-mK3Ywu-12" value="Browser.exe" style="shape=module;align=left;spacingLeft=20;align=center;verticalAlign=top;" vertex="1" parent="1">
          <mxGeometry x="440" y="285" width="100" height="50" as="geometry" />
        </mxCell>
        <mxCell id="hyrHyGOHG9iXG-mK3Ywu-13" value="&lt;br&gt;" style="html=1;verticalAlign=bottom;endArrow=open;dashed=1;endSize=8;exitX=0;exitY=0;exitDx=50;exitDy=50;exitPerimeter=0;" edge="1" parent="1" source="hyrHyGOHG9iXG-mK3Ywu-4" target="hyrHyGOHG9iXG-mK3Ywu-5">
          <mxGeometry relative="1" as="geometry">
            <mxPoint x="210" y="370" as="sourcePoint" />
            <mxPoint x="130" y="370" as="targetPoint" />
          </mxGeometry>
        </mxCell>
        <mxCell id="hyrHyGOHG9iXG-mK3Ywu-14" value="&lt;br&gt;" style="html=1;verticalAlign=bottom;endArrow=open;dashed=1;endSize=8;exitX=0;exitY=0;exitDx=50;exitDy=50;exitPerimeter=0;" edge="1" parent="1">
          <mxGeometry relative="1" as="geometry">
            <mxPoint x="489.5" y="225" as="sourcePoint" />
            <mxPoint x="489.5" y="285" as="targetPoint" />
          </mxGeometry>
        </mxCell>
        <mxCell id="hyrHyGOHG9iXG-mK3Ywu-15" value="index.html" style="shape=module;align=left;spacingLeft=20;align=center;verticalAlign=top;" vertex="1" parent="1">
          <mxGeometry x="290" y="420" width="100" height="50" as="geometry" />
        </mxCell>
        <mxCell id="hyrHyGOHG9iXG-mK3Ywu-16" value="registration.html" style="shape=module;align=left;spacingLeft=20;align=center;verticalAlign=top;" vertex="1" parent="1">
          <mxGeometry x="40" y="420" width="120" height="50" as="geometry" />
        </mxCell>
        <mxCell id="hyrHyGOHG9iXG-mK3Ywu-17" value="news.html" style="shape=module;align=left;spacingLeft=20;align=center;verticalAlign=top;" vertex="1" parent="1">
          <mxGeometry x="414" y="420" width="100" height="50" as="geometry" />
        </mxCell>
        <mxCell id="hyrHyGOHG9iXG-mK3Ywu-18" value="bd.mdf" style="shape=datastore;whiteSpace=wrap;html=1;" vertex="1" parent="1">
          <mxGeometry x="30" y="330" width="60" height="60" as="geometry" />
        </mxCell>
        <mxCell id="hyrHyGOHG9iXG-mK3Ywu-19" value="&lt;br&gt;" style="html=1;verticalAlign=bottom;endArrow=open;dashed=1;endSize=8;exitX=0;exitY=0;exitDx=50;exitDy=50;exitPerimeter=0;entryX=0.5;entryY=0;entryDx=0;entryDy=0;" edge="1" parent="1" source="hyrHyGOHG9iXG-mK3Ywu-4" target="hyrHyGOHG9iXG-mK3Ywu-15">
          <mxGeometry relative="1" as="geometry">
            <mxPoint x="240" y="370" as="sourcePoint" />
            <mxPoint x="240" y="430" as="targetPoint" />
          </mxGeometry>
        </mxCell>
        <mxCell id="hyrHyGOHG9iXG-mK3Ywu-20" value="&lt;br&gt;" style="html=1;verticalAlign=bottom;endArrow=open;dashed=1;endSize=8;exitX=0;exitY=0;exitDx=50;exitDy=50;exitPerimeter=0;entryX=0.5;entryY=0;entryDx=0;entryDy=0;" edge="1" parent="1" source="hyrHyGOHG9iXG-mK3Ywu-4" target="hyrHyGOHG9iXG-mK3Ywu-17">
          <mxGeometry relative="1" as="geometry">
            <mxPoint x="240" y="370" as="sourcePoint" />
            <mxPoint x="350" y="430" as="targetPoint" />
          </mxGeometry>
        </mxCell>
        <mxCell id="hyrHyGOHG9iXG-mK3Ywu-21" value="&lt;br&gt;" style="html=1;verticalAlign=bottom;endArrow=open;dashed=1;endSize=8;exitX=0;exitY=0;exitDx=50;exitDy=50;exitPerimeter=0;entryX=0.5;entryY=0;entryDx=0;entryDy=0;" edge="1" parent="1" source="hyrHyGOHG9iXG-mK3Ywu-4" target="hyrHyGOHG9iXG-mK3Ywu-16">
          <mxGeometry relative="1" as="geometry">
            <mxPoint x="240" y="370" as="sourcePoint" />
            <mxPoint x="474" y="430" as="targetPoint" />
          </mxGeometry>
        </mxCell>
        <mxCell id="hyrHyGOHG9iXG-mK3Ywu-22" value="&lt;br&gt;" style="html=1;verticalAlign=bottom;endArrow=open;dashed=1;endSize=8;exitX=0;exitY=0;exitDx=0;exitDy=30;exitPerimeter=0;entryX=1;entryY=0.5;entryDx=0;entryDy=0;" edge="1" parent="1" source="hyrHyGOHG9iXG-mK3Ywu-4" target="hyrHyGOHG9iXG-mK3Ywu-18">
          <mxGeometry relative="1" as="geometry">
            <mxPoint x="240" y="370" as="sourcePoint" />
            <mxPoint x="110" y="430" as="targetPoint" />
          </mxGeometry>
        </mxCell>
      </root>
    </mxGraphModel>
  </diagram>
</mxfile>
